<?xml version="1.0" standalone="no"?>
<!DOCTYPE svg PUBLIC "-//W3C//DTD SVG 20010904//EN"
 "http://www.w3.org/TR/2001/REC-SVG-20010904/DTD/svg10.dtd">
<svg version="1.0" xmlns="http://www.w3.org/2000/svg"
 width="1280.000000pt" height="728.000000pt" viewBox="0 0 1280.000000 728.000000"
 preserveAspectRatio="xMidYMid meet">
<metadata>
Created by potrace 1.15, written by Peter Selinger 2001-2017
</metadata>
<g transform="translate(0.000000,728.000000) scale(0.100000,-0.100000)"
fill="#ffc600" stroke="none">
<path d="M6319 7178 c-115 -179 -212 -405 -255 -598 -11 -49 -17 -124 -17
-215 -1 -173 10 -225 90 -412 2 -6 -47 23 -109 64 -140 92 -302 174 -416 210
-70 22 -106 27 -182 27 -192 0 -310 -74 -347 -216 -17 -67 -16 -94 3 -181 59
-262 269 -422 389 -297 29 30 29 30 12 65 -41 86 -9 161 86 209 149 74 356 26
438 -101 52 -81 31 -135 -136 -363 -98 -133 -113 -157 -125 -200 -11 -38 4
-50 60 -50 143 0 289 81 343 191 l25 49 52 -127 52 -127 -21 -115 c-31 -164
-85 -392 -132 -556 -232 -810 -557 -1288 -974 -1432 -71 -24 -94 -27 -205 -27
-109 0 -136 4 -210 28 -114 37 -255 112 -365 194 -159 118 -395 360 -537 552
l-55 75 9 135 c6 74 12 137 14 139 2 2 12 -7 23 -21 11 -13 47 -39 81 -57 49
-26 77 -34 138 -38 87 -6 181 10 212 35 19 16 20 21 9 45 -13 28 -93 93 -229
184 -94 63 -176 137 -196 176 -41 79 41 228 160 289 99 51 208 64 277 35 61
-26 83 -60 89 -135 5 -62 7 -68 34 -81 134 -64 261 84 274 320 8 170 -47 294
-157 351 -108 57 -292 28 -436 -68 -90 -60 -248 -221 -349 -354 -44 -58 -82
-108 -85 -112 -3 -4 -6 59 -6 140 0 180 -18 250 -105 427 -96 193 -250 382
-449 547 -73 60 -97 75 -103 64 -14 -26 -57 -219 -74 -336 -24 -169 -15 -419
20 -555 43 -166 141 -343 235 -422 34 -30 18 -29 -89 2 -218 64 -465 90 -597
62 -142 -31 -262 -109 -308 -202 -15 -30 -20 -60 -20 -121 0 -72 4 -87 37
-156 74 -149 228 -268 349 -268 50 0 63 4 92 30 19 16 40 44 47 61 12 27 11
33 -3 40 -29 17 -57 75 -57 119 0 112 130 214 288 227 91 8 165 -14 223 -66
44 -38 44 -39 43 -102 -2 -62 -14 -112 -88 -349 -39 -126 -44 -171 -20 -191
21 -17 69 0 156 58 99 65 158 149 174 250 l6 42 84 -96 84 -96 0 -86 c0 -111
-26 -435 -46 -571 -73 -503 -237 -839 -458 -944 -146 -69 -449 -113 -598 -87
-206 36 -461 170 -750 395 -91 71 -97 79 -112 130 -9 31 -19 62 -22 70 -5 13
0 13 42 0 63 -19 110 -18 183 5 72 22 141 65 195 120 67 69 33 92 -170 116
-267 31 -348 54 -388 108 -31 43 -28 162 7 240 53 117 180 217 276 217 73 0
111 -30 141 -114 10 -27 13 -28 53 -22 127 21 174 135 128 316 -54 213 -202
353 -357 337 -113 -12 -260 -128 -331 -262 -65 -124 -139 -385 -159 -562 -3
-35 -9 -63 -13 -63 -3 0 -15 23 -25 51 -69 197 -262 384 -517 503 -164 76
-411 145 -579 161 l-65 6 75 -71 c117 -110 290 -263 470 -415 352 -297 551
-482 792 -740 139 -148 193 -215 303 -376 357 -521 478 -750 549 -1039 49
-198 75 -482 59 -630 l-9 -75 -24 42 c-14 24 -28 43 -31 43 -3 0 -12 -34 -19
-75 -12 -68 -15 -74 -34 -70 -11 2 -48 6 -80 10 l-60 6 19 -23 c11 -13 35 -40
54 -60 l35 -38 -60 -55 -59 -56 82 3 83 3 5 -45 c3 -25 9 -58 13 -75 l8 -29
34 48 35 48 3 -63 c1 -35 4 -74 7 -87 l5 -22 4135 0 4134 0 3 88 3 87 33 -69
c19 -40 36 -65 41 -60 5 5 16 34 26 64 10 30 20 58 24 62 3 4 35 1 70 -8 36
-8 68 -13 73 -12 5 2 -9 29 -31 60 -23 31 -41 59 -41 62 0 2 28 26 63 53 l62
48 -80 5 -80 5 1 78 2 79 -58 -57 -58 -57 -26 18 -27 19 4 230 c3 211 6 238
30 330 100 373 363 864 752 1406 188 262 436 510 910 910 233 197 494 429 545
484 l25 27 -55 -7 c-107 -13 -296 -55 -387 -84 -346 -115 -568 -281 -689 -517
-24 -46 -44 -91 -44 -99 0 -8 -3 -15 -7 -15 -5 0 -18 63 -31 141 -48 293 -129
495 -247 615 -163 165 -334 174 -469 23 -85 -94 -142 -257 -133 -376 8 -102
56 -161 140 -170 l45 -5 20 43 c31 71 63 94 130 94 65 0 110 -19 172 -73 89
-76 149 -214 135 -310 -17 -117 -57 -136 -360 -172 -226 -28 -265 -42 -250
-90 9 -29 98 -98 173 -133 79 -37 176 -46 240 -24 30 10 42 11 39 4 -2 -7 -16
-51 -31 -98 l-26 -86 -107 -90 c-388 -324 -614 -433 -897 -433 -302 0 -559
148 -707 409 -147 256 -215 577 -249 1174 l-11 198 88 101 88 101 6 -50 c14
-107 108 -222 233 -283 89 -44 101 -40 100 35 0 44 -14 104 -53 225 -39 119
-55 187 -58 243 l-6 77 37 34 c107 102 309 98 439 -7 94 -78 110 -165 43 -243
l-34 -39 20 -38 c57 -113 216 -100 360 32 180 165 212 392 73 520 -56 52 -174
107 -260 122 -133 23 -382 -7 -612 -74 l-82 -24 48 53 c225 246 301 631 211
1074 -26 127 -53 221 -63 222 -20 0 -224 -181 -300 -267 -253 -283 -373 -568
-353 -838 l6 -90 -81 109 c-45 60 -136 163 -203 229 -176 173 -272 224 -441
233 -74 3 -98 0 -135 -16 -127 -55 -197 -220 -171 -405 32 -226 155 -340 290
-268 18 10 20 18 15 50 -13 83 40 154 127 169 185 32 408 -124 409 -286 0 -38
-6 -49 -52 -99 -29 -30 -111 -96 -183 -145 -71 -50 -147 -107 -167 -126 -82
-78 -34 -115 147 -116 126 -1 172 14 244 79 22 21 41 33 41 29 0 -5 5 -60 10
-123 l9 -115 -52 -70 c-186 -255 -435 -524 -592 -641 -293 -219 -487 -248
-750 -112 -412 213 -735 744 -964 1582 -44 157 -111 459 -111 494 0 18 27 92
75 205 l16 38 21 -41 c28 -57 117 -136 181 -159 72 -27 171 -46 202 -38 21 5
25 12 25 41 0 36 -27 81 -153 250 -75 100 -137 215 -137 252 0 36 23 74 74
121 79 73 191 103 306 83 149 -27 227 -131 174 -232 -8 -16 -12 -39 -9 -49 8
-26 84 -70 120 -70 78 0 185 94 243 215 114 234 54 444 -146 505 -86 27 -213
27 -312 0 -102 -28 -310 -132 -450 -224 -63 -42 -116 -76 -117 -76 -2 0 3 10
11 23 28 43 75 203 86 296 25 212 -31 472 -159 737 -62 128 -156 284 -172 284
-6 0 -37 -42 -70 -92z"/>
</g>
</svg>
