<?xml version="1.0" encoding="UTF-8"?>
<svg xmlns="http://www.w3.org/2000/svg" xmlns:xlink="http://www.w3.org/1999/xlink" width="1878" height="2348" viewBox="0 0 1878 2348">

<path fill-rule="nonzero" fill="rgb(6.665039%, 4.307556%, 7.446289%)" fill-opacity="1" d="M 838.621094 310.679688 C 850.527344 305.171875 860.835938 315.480469 857.679688 327.339844 C 852.882812 341.140625 845.183594 353.851562 839.96875 367.519531 C 908.246094 335.460938 985.488281 318 1060.878906 327.550781 C 1069.460938 329.359375 1082.078125 330.539062 1083.550781 341.351562 C 1085.609375 352.539062 1076.78125 356.578125 1068.738281 361.460938 C 1036.140625 378.75 1001.808594 398.53125 975.054688 424.191406 C 1016.03125 438.371094 1050.53125 459.269531 1080.820312 490.410156 C 1088.050781 484.429688 1093.191406 477.28125 1103.488281 477.578125 C 1132.730469 477.148438 1162.101562 477.320312 1191.339844 477.578125 C 1214.730469 477.53125 1236.730469 491.5 1246.488281 512.75 C 1252.039062 525.371094 1251.871094 537.859375 1252 551.320312 C 1251.871094 590.148438 1251.789062 628.980469 1251.578125 667.820312 C 1261.46875 675.679688 1271.480469 683.378906 1281.578125 691.039062 C 1283.429688 674.550781 1284.101562 659.53125 1293.730469 645.351562 C 1309.171875 621.578125 1338.660156 610.46875 1366.140625 616.949219 C 1405.21875 625.539062 1441.820312 658.269531 1454.359375 696.378906 C 1464.238281 726 1457.429688 759.910156 1432.648438 779.96875 C 1418.640625 791.75 1402.480469 794.449219 1384.980469 797.261719 C 1455.238281 889.140625 1495.078125 1003.910156 1499.960938 1119.21875 C 1512.960938 1108.710938 1525.03125 1099.160156 1541.988281 1096.089844 C 1563.359375 1091.960938 1584.648438 1099.660156 1600.300781 1114.261719 C 1631.179688 1142.070312 1637.738281 1190.371094 1618.558594 1226.671875 C 1603.789062 1254.519531 1573.078125 1273.121094 1541.191406 1265.921875 C 1520.910156 1261.878906 1508.921875 1248.878906 1494.570312 1235.378906 C 1470.550781 1390.910156 1384.648438 1534.707031 1254.820312 1624.570312 C 1243.25 1631.847656 1241.058594 1644.046875 1235.890625 1655.867188 C 1215.648438 1709.550781 1193.101562 1762.515625 1174.421875 1816.742188 C 1184.769531 1825.367188 1194.828125 1833.191406 1202.398438 1844.59375 C 1212.121094 1858.769531 1216.660156 1876.3125 1217.5 1893.3125 C 1217.421875 1905.972656 1209.300781 1916.703125 1195.878906 1916.15625 C 1166.261719 1916.367188 1136.601562 1915.984375 1106.980469 1916.113281 C 1078.671875 1917.039062 1053.050781 1892.34375 1053.300781 1863.902344 C 1052.210938 1812.410156 1070.171875 1757.929688 1086.078125 1709.382812 C 971.605469 1743.921875 848.59375 1747.453125 733.109375 1715.398438 C 748.046875 1760.832031 764.664062 1811.777344 764.789062 1859.992188 C 765.460938 1886.203125 747.496094 1912.535156 720.445312 1915.734375 C 690.871094 1916.785156 661.214844 1915.777344 631.636719 1916.324219 C 622.929688 1915.734375 612.707031 1917.921875 606.226562 1910.6875 C 597.476562 1904.5 600.378906 1889.902344 600.882812 1880.691406 C 604.378906 1852.671875 621.246094 1833.023438 642.574219 1816.15625 C 620.402344 1762.347656 598.992188 1707.992188 575.9375 1654.523438 C 571.097656 1641.734375 560.414062 1637.734375 550.023438 1630.246094 C 413.757812 1539.378906 319.140625 1390.492188 295.332031 1228.308594 C 283.089844 1139.121094 289.945312 1046.488281 317.796875 960.710938 C 353.640625 848.589844 424.230469 748.511719 517.460938 676.730469 C 525.410156 670.589844 534.160156 665.210938 541.605469 658.390625 C 545.140625 653.640625 543.921875 645.691406 544.382812 640.011719 C 544.214844 607.570312 544.175781 575.179688 544.132812 542.738281 C 544.214844 529.410156 544.761719 516.988281 552.25 505.46875 C 563.105469 487.839844 582.5 478.121094 602.945312 477.699219 C 632.605469 477.238281 662.304688 477.28125 691.925781 477.578125 C 701.179688 454.730469 709.636719 432.140625 723.308594 411.398438 C 750.695312 368.488281 791.25 330.199219 838.621094 310.679688 "/>
<path fill-rule="nonzero" fill="rgb(35.693359%, 35.693359%, 35.693359%)" fill-opacity="1" d="M 819.144531 348.378906 C 816.199219 362.300781 811.445312 376.988281 811.695312 391.25 C 812.621094 398.398438 816.03125 400.421875 822.339844 402.609375 C 830.921875 401.179688 839.296875 396.210938 846.949219 392.261719 C 877.660156 375.089844 911.78125 363.691406 946.109375 356.460938 C 976.019531 350.058594 1004.589844 351.578125 1034.878906 350.730469 C 1005.511719 367.101562 977.15625 386.28125 951.703125 408.289062 C 943.460938 416.699219 933.785156 423.851562 937.988281 437.058594 C 952.632812 446.910156 972.445312 449.261719 988.726562 456.371094 C 1016.699219 468.449219 1042.410156 486.828125 1064.449219 507.738281 C 1042.070312 507.949219 1020.03125 506.519531 997.8125 504.039062 C 972.234375 501.300781 947.710938 505.46875 922.339844 506.691406 C 847.792969 507.738281 773.789062 522.089844 704.503906 549.640625 C 707.699219 468.988281 750.191406 391.210938 819.144531 348.378906 "/>
<path fill-rule="nonzero" fill="#b89819"  fill-opacity="1" d="M 598.65625 502.769531 C 624.738281 501.980469 650.945312 502.898438 677.074219 502.398438 C 676.695312 531.050781 676.527344 559.738281 676.734375 588.390625 C 638.621094 602.480469 603.746094 621.828125 568.195312 641.101562 C 567.648438 611.191406 568.027344 581.238281 567.734375 551.28125 C 567.902344 541.308594 567.269531 529.320312 571.394531 520.070312 C 576.734375 510.089844 587.171875 502.941406 598.65625 502.769531 "/>
<path fill-rule="nonzero" fill="#b89819"  fill-opacity="1" d="M 1108.671875 502.941406 C 1132.101562 502.191406 1155.578125 503.320312 1179.011719 502.609375 C 1187.46875 502.769531 1197.058594 501.71875 1205.128906 504.421875 C 1216.828125 509.589844 1227.011719 521.660156 1227.011719 534.921875 C 1227.730469 573.410156 1226.589844 611.988281 1227.308594 650.519531 C 1190.371094 626.210938 1149.601562 607.230469 1108.628906 590.828125 C 1108.25 561.589844 1107.699219 532.179688 1108.671875 502.941406 "/>
<path fill-rule="nonzero" fill="rgb(99.609375%, 99.609375%, 99.21875%)" fill-opacity="0" d="M 1084.058594 536.429688 C 1084.140625 551.371094 1084.230469 566.300781 1083.96875 581.28125 C 1034.839844 567.941406 986.035156 555.871094 934.917969 552.878906 C 857.007812 546.398438 778.125 558.898438 703.28125 580.21875 C 756.121094 553.890625 812.960938 540.640625 871.519531 535.289062 C 942.113281 528.691406 1013.550781 529.359375 1084.058594 536.429688 "/>
<path fill-rule="nonzero" fill="#b89819"  fill-opacity="0" d="M 871.519531 574.078125 C 972.527344 570.039062 1075.21875 594.53125 1164.789062 641.058594 C 1288.101562 706.730469 1389.359375 810.980469 1439.800781 942.449219 C 1506.230469 1111.648438 1484.269531 1311.019531 1382.078125 1461.378906 C 1318.339844 1556.585938 1224.570312 1630.878906 1118.089844 1672.78125 C 1073.960938 1689.019531 1027.601562 1699.871094 981.152344 1707.152344 C 954.398438 1711.566406 928.105469 1710.644531 901.136719 1710.6875 C 832.941406 1713.671875 766.304688 1702.273438 702.230469 1679.089844 C 635.507812 1657.46875 576.527344 1621.453125 521.496094 1578.542969 C 500.714844 1562.011719 482.289062 1542.070312 463.484375 1523.304688 C 382.710938 1438.914062 333.066406 1326.878906 318.554688 1211.441406 C 313.296875 1172.949219 313.253906 1133.53125 314.515625 1094.78125 C 317.839844 1044.71875 329.742188 994.949219 346.738281 947.828125 C 388.011719 832.769531 468.449219 733.359375 571.058594 667.230469 C 660.878906 609.550781 765.210938 579.339844 871.519531 574.078125 "/>
<path fill-rule="nonzero" fill="rgb(35.693359%, 35.693359%, 35.693359%)" fill-opacity="0" d="M 1335.679688 640.851562 C 1381.410156 628.609375 1430.628906 675.769531 1433.660156 719.898438 C 1436.851562 750.058594 1408.078125 775.050781 1378.96875 771.050781 C 1363.570312 768.148438 1351.238281 753.640625 1340.390625 743.160156 C 1326.171875 728.308594 1309.929688 714.929688 1307.488281 693.101562 C 1305.128906 672.609375 1313.511719 646.648438 1335.679688 640.851562 "/>
<path fill-rule="nonzero" fill="rgb(6.665039%, 4.707336%, 7.446289%)" fill-opacity="0" d="M 859.066406 648.339844 C 910.433594 648.378906 965.628906 645.519531 1015.191406 658.980469 C 1060.960938 669.75 1103.238281 688.929688 1144.46875 711.109375 C 1177.328125 728.859375 1207.988281 751.238281 1236.640625 775.089844 C 1263.191406 797.21875 1284.308594 822.511719 1306.398438 848.839844 C 1367.058594 923.429688 1402.058594 1015.480469 1411.660156 1110.808594 C 1412.960938 1141.609375 1413.421875 1172.859375 1410.941406 1203.621094 C 1400.671875 1288.46875 1367.730469 1369.835938 1317.460938 1438.871094 C 1294.320312 1470.425781 1267.101562 1497.515625 1237.699219 1523.179688 C 1125.828125 1618.089844 975.011719 1664.703125 829.15625 1645.605469 C 752.335938 1639.417969 680.3125 1608.917969 614.050781 1571.054688 C 588.304688 1556.5 565.210938 1535.042969 542.449219 1516.070312 C 479.679688 1459.359375 429.871094 1387.253906 401.769531 1307.320312 C 378.375 1238.789062 368.152344 1166.050781 379.933594 1094.109375 C 398.109375 938.03125 494.867188 796.71875 630.460938 718.589844 C 700 677.828125 778.714844 653.851562 859.066406 648.339844 "/>
<path fill-rule="nonzero" fill="rgb(99.609375%, 99.609375%, 99.609375%)" fill-opacity="1" d="M 1055.578125 691.5 C 1151.070312 724.78125 1234.421875 787.5 1296.339844 867.101562 C 1336.21875 918.96875 1364.621094 979.890625 1380.101562 1043.421875 C 1387.128906 1072.738281 1392.511719 1101.640625 1392.300781 1131.929688 C 1392.179688 1166.21875 1394.070312 1198.320312 1387.210938 1232.101562 C 1365.710938 1360.539062 1286.328125 1476.355469 1177.871094 1547.453125 C 1101.261719 1598.359375 1010.101562 1628.816406 918.089844 1632.394531 C 901.136719 1634.539062 884.4375 1633.402344 867.523438 1631.761719 C 788.265625 1629.617188 708.960938 1604.25 640.386719 1564.953125 C 548.128906 1510.390625 469.796875 1426.925781 428.441406 1327.339844 C 394.742188 1247.871094 385.277344 1159.488281 398.949219 1074.421875 C 410.308594 1002.941406 440.007812 935.300781 481.488281 876.230469 C 544.636719 785.988281 639.460938 718.050781 744.722656 685.949219 C 845.5625 654.480469 955.953125 656.121094 1055.578125 691.5 "/>
<path fill-rule="nonzero" fill="rgb(6.272888%, 3.529358%, 7.054138%)" fill-opacity="1" d="M 907.785156 683.210938 C 908.667969 708.960938 909.171875 735.039062 907.65625 760.75 C 907.320312 772.78125 894.488281 776.691406 886.621094 768.070312 C 881.574219 751.660156 883.425781 732.390625 882.964844 715.308594 C 883.425781 705.378906 881.65625 692.800781 887.003906 684.101562 C 893.816406 676.359375 899.453125 681.910156 907.785156 683.210938 "/>
<path fill-rule="nonzero" fill="rgb(5.880737%, 5.099487%, 6.665039%)" fill-opacity="1" d="M 681.828125 774.171875 C 690.199219 787.710938 698.65625 799.828125 699.496094 816.320312 C 695.121094 817.078125 690.746094 817.878906 686.371094 818.640625 C 679.34375 807.191406 671.433594 795.289062 666.976562 782.578125 C 670.425781 775.300781 674.886719 775.679688 681.828125 774.171875 "/>
<path fill-rule="nonzero" fill="rgb(5.880737%, 3.921509%, 6.665039%)" fill-opacity="1" d="M 1125.828125 782.5 C 1122.050781 795.789062 1114.261719 808.328125 1107.53125 820.28125 C 1102.148438 818 1096.761719 815.730469 1091.339844 813.5 C 1096.378906 800.378906 1101.941406 787.589844 1109.339844 775.601562 C 1116.910156 776.441406 1122.421875 773.828125 1125.828125 782.5 "/>
<path fill-rule="nonzero" fill="rgb(6.272888%, 4.307556%, 7.054138%)" fill-opacity="1" d="M 1203.410156 930.25 C 1263.699219 958.601562 1303.328125 1023.21875 1299.328125 1090.03125 C 1298.109375 1148.460938 1262.050781 1204.078125 1210.648438 1231.128906 C 1181.910156 1247.03125 1150.78125 1250.101562 1118.46875 1249.140625 C 1116.160156 1279.339844 1110.558594 1308.671875 1096.589844 1335.800781 C 1077.488281 1374.210938 1045.558594 1404.835938 1006.648438 1422.71875 C 935.84375 1457.171875 846.488281 1445.058594 787.464844 1392.890625 C 749.390625 1360.242188 725.367188 1314.351562 720.53125 1264.371094 C 709.214844 1263.441406 698.023438 1262.679688 686.746094 1261.210938 C 647.289062 1255.699219 610.8125 1234.121094 585.90625 1203.199219 C 542.070312 1150.320312 536.140625 1071.011719 570.679688 1011.820312 C 598.105469 963.148438 651.621094 931.171875 707.65625 931.210938 C 749.433594 930.328125 790.789062 951.109375 814.347656 985.78125 C 779.34375 969.121094 747.707031 952.800781 707.574219 953.808594 C 649.097656 953.71875 596.511719 994.699219 578.882812 1049.808594 C 560.246094 1106.769531 577.578125 1172.78125 625.199219 1210.21875 C 663.023438 1241.140625 715.820312 1248.628906 761.507812 1232.351562 C 781.867188 1225.410156 798.90625 1213.96875 817.417969 1203.488281 C 802.484375 1229.410156 781.109375 1245.480469 754.144531 1257.46875 C 856.332031 1254.230469 957.679688 1241.988281 1058.140625 1223.261719 C 1048.800781 1212.621094 1039.289062 1202.308594 1031.390625 1190.488281 C 1064.828125 1209.890625 1096.800781 1226.839844 1136.769531 1226.339844 C 1202.949219 1227.429688 1260.199219 1177.070312 1272.988281 1113.121094 C 1286.75 1053.511719 1257.851562 988.929688 1205.390625 958.101562 C 1165.761719 934.238281 1115.058594 933.148438 1072.609375 950.019531 C 1053.050781 957.378906 1035.839844 968.191406 1018.050781 978.921875 C 1028.191406 964.070312 1039.460938 950.441406 1054.359375 940.128906 C 1095.960938 909.378906 1157.640625 909.300781 1203.410156 930.25 "/>
<path fill-rule="nonzero" fill="rgb(5.099487%, 4.307556%, 5.488586%)" fill-opacity="1" d="M 496.972656 938.320312 C 513.335938 940.46875 526.125 947.960938 538.367188 958.640625 C 535.929688 962.71875 533.445312 966.808594 530.839844 970.800781 C 517.121094 966.339844 504.753906 960.75 493.226562 952 C 494.40625 947.410156 495.667969 942.871094 496.972656 938.320312 "/>
<path fill-rule="nonzero" fill="rgb(4.707336%, 3.529358%, 5.488586%)" fill-opacity="1" d="M 1295.5 939.328125 C 1297.140625 943.410156 1298.738281 947.5 1300.25 951.621094 C 1287.089844 960.710938 1274.550781 969.328125 1258.230469 971.308594 C 1257.089844 965.960938 1255.789062 960.660156 1254.230469 955.488281 C 1268.070312 948.210938 1279.140625 939.121094 1295.5 939.328125 "/>
<path fill-rule="nonzero" fill="rgb(7.054138%, 4.307556%, 7.446289%)" fill-opacity="1" d="M 1067.191406 983 C 1092.929688 976.941406 1119.308594 986.03125 1136.941406 1005.46875 C 1165.128906 1034.921875 1167.441406 1084.179688 1141.859375 1115.941406 C 1123.640625 1139.628906 1091.921875 1150.648438 1063.109375 1141.859375 C 1026.878906 1130.628906 1005.011719 1093.101562 1008.539062 1055.988281 C 1010.601562 1021.921875 1033.359375 991.039062 1067.191406 983 "/>
<path fill-rule="nonzero" fill="rgb(7.054138%, 4.707336%, 7.446289%)" fill-opacity="1" d="M 734.917969 999.578125 C 759.445312 990.070312 786.875 994.488281 806.773438 1011.738281 C 838.539062 1037.820312 845.101562 1087.171875 823.6875 1121.75 C 809.257812 1145.601562 782.207031 1160.449219 754.101562 1157.050781 C 719.4375 1153.679688 691.460938 1123.390625 686.410156 1089.648438 C 680.1875 1053.050781 699.539062 1013.25 734.917969 999.578125 "/>
<path fill-rule="nonzero" fill="rgb(99.609375%, 99.609375%, 100%)" fill-opacity="1" d="M 1104.839844 1002.898438 C 1121.878906 998.78125 1134.839844 1012.75 1131.179688 1029.53125 C 1127.769531 1046.570312 1106.398438 1051.578125 1094.910156 1039.121094 C 1083.339844 1026.710938 1088.261719 1007.320312 1104.839844 1002.898438 "/>
<path fill-rule="nonzero" fill="rgb(99.609375%, 99.609375%, 99.609375%)" fill-opacity="1" d="M 781.195312 1015.820312 C 797.433594 1011.359375 810.980469 1022.128906 809.71875 1039.039062 C 808.457031 1054.730469 790.074219 1063.441406 777.03125 1054.859375 C 762.347656 1045.898438 763.945312 1020.871094 781.195312 1015.820312 "/>
<path fill-rule="nonzero" fill="rgb(6.272888%, 4.307556%, 7.054138%)" fill-opacity="1" d="M 995.539062 1117.421875 C 1002.691406 1121.878906 1005.300781 1127.429688 1003.789062 1135.839844 C 996.425781 1169.710938 967.734375 1195.878906 933.613281 1201.261719 C 894.824219 1208.289062 852.589844 1191.75 834.496094 1155.621094 C 830.25 1147.410156 831.46875 1138.539062 840.136719 1134.121094 C 858.5625 1130.371094 878.335938 1131.96875 897.097656 1130.539062 C 923.980469 1128.988281 950.359375 1124.648438 976.609375 1118.71875 C 982.5 1117.710938 989.695312 1115.648438 995.539062 1117.421875 "/>
<path fill-rule="nonzero" fill="rgb(35.693359%, 35.693359%, 35.693359%)" fill-opacity="1" d="M 1538.5 1121.449219 C 1555.238281 1114.890625 1573.621094 1120.230469 1585.871094 1132.859375 C 1603.449219 1150.019531 1609.089844 1175.351562 1602.441406 1198.78125 C 1597.308594 1221.238281 1577.828125 1242.320312 1553.808594 1242.828125 C 1530.210938 1240.808594 1509.46875 1218.21875 1502.058594 1196.839844 C 1496.46875 1167.820312 1509.929688 1133.191406 1538.5 1121.449219 "/>
<path fill-rule="nonzero" fill="rgb(6.272888%, 3.921509%, 7.054138%)" fill-opacity="1" d="M 472.191406 1137.441406 C 479.597656 1138.449219 490.324219 1135.878906 494.574219 1143.421875 C 499.453125 1151.539062 493.898438 1160.578125 484.265625 1160.578125 C 460.496094 1162.679688 433.234375 1166.089844 410.390625 1157.761719 C 411.234375 1152.171875 409.003906 1141.769531 415.273438 1138.960938 C 431.972656 1131.339844 453.890625 1137.988281 472.191406 1137.441406 "/>
<path fill-rule="nonzero" fill="rgb(6.272888%, 4.307556%, 7.054138%)" fill-opacity="1" d="M 1355.699219 1135.25 C 1363.78125 1136.351562 1374.628906 1135.929688 1377.660156 1145.269531 C 1382.210938 1157.128906 1369.5 1162.558594 1359.738281 1162.511719 C 1336.859375 1161.878906 1310.980469 1166.011719 1289.53125 1157.761719 C 1290.488281 1150.519531 1288.691406 1144.46875 1294.488281 1138.910156 C 1313.800781 1133.398438 1335.71875 1135.039062 1355.699219 1135.25 "/>
<path fill-rule="nonzero" fill="rgb(98.4375%, 61.521912%, 26.660156%)" fill-opacity="1" d="M 974.632812 1145.179688 C 961.296875 1166.71875 943.585938 1177.871094 917.921875 1178.628906 C 897.605469 1180.058594 884.519531 1169.710938 868.113281 1160.199219 C 903.957031 1158.898438 938.789062 1147.660156 974.632812 1145.179688 "/>
<path fill-rule="nonzero" fill="#b89819" fill-opacity="1" d="M 1091.378906 1244.128906 C 1089.148438 1280.519531 1080.941406 1315.140625 1060.121094 1345.601562 C 1037.699219 1376.230469 1004.671875 1399.03125 968.113281 1409.214844 C 909.300781 1425.914062 843.417969 1411.148438 799.035156 1368.699219 C 774.128906 1346.648438 763.484375 1315.820312 750.90625 1285.910156 C 778.757812 1286.070312 805.976562 1280.941406 833.867188 1280.980469 C 920.195312 1273.960938 1006.691406 1262.511719 1091.378906 1244.128906 "/>
<path fill-rule="nonzero" fill="rgb(5.488586%, 4.707336%, 6.272888%)" fill-opacity="1" d="M 530.878906 1327.558594 C 533.824219 1331.21875 536.726562 1334.921875 539.546875 1338.660156 C 527.933594 1348.96875 514.386719 1355.617188 500.421875 1362.054688 C 496.339844 1356.078125 492.257812 1352.164062 494.910156 1344.46875 C 505.175781 1336.390625 518.636719 1331.640625 530.878906 1327.558594 "/>
<path fill-rule="nonzero" fill="rgb(5.880737%, 4.307556%, 7.054138%)" fill-opacity="1" d="M 1266.851562 1327.71875 C 1278.589844 1331.550781 1289.820312 1339.378906 1300.128906 1346.019531 C 1297.898438 1351.40625 1295.628906 1356.753906 1293.308594 1362.09375 C 1278.171875 1356.121094 1263.859375 1349.179688 1251.539062 1338.28125 C 1255.789062 1333.871094 1259.191406 1324.480469 1266.851562 1327.71875 "/>
<path fill-rule="nonzero" fill="rgb(5.488586%, 4.307556%, 5.880737%)" fill-opacity="1" d="M 687.128906 1464.785156 C 690.996094 1464.785156 694.828125 1464.996094 698.65625 1465.375 C 702.3125 1479.804688 689.019531 1495.875 682.542969 1508.078125 C 678.25 1507.152344 673.917969 1506.183594 669.625 1505.257812 C 670.761719 1490.617188 677.535156 1475.769531 687.128906 1464.785156 "/>
<path fill-rule="nonzero" fill="rgb(5.880737%, 5.099487%, 6.665039%)" fill-opacity="1" d="M 1095.839844 1466.050781 C 1099.449219 1465.121094 1103.121094 1464.367188 1106.859375 1463.777344 C 1115.398438 1476.0625 1122.089844 1489.398438 1127.851562 1503.238281 C 1123.808594 1504.878906 1119.769531 1506.4375 1115.691406 1507.992188 C 1109.050781 1506.351562 1105.429688 1496.046875 1101.808594 1490.660156 C 1098.449219 1483.003906 1091.421875 1474.589844 1095.839844 1466.050781 "/>
<path fill-rule="nonzero" fill="rgb(6.272888%, 3.921509%, 7.054138%)" fill-opacity="1" d="M 906.816406 1525.535156 C 908.710938 1553.429688 908.121094 1582.246094 907.824219 1610.222656 C 906.523438 1622.171875 894.65625 1618.007812 886.371094 1618.59375 C 880.480469 1600.464844 884.4375 1583.71875 884.644531 1565.25 C 884.941406 1551.535156 884.4375 1537.988281 886.078125 1524.359375 C 895.246094 1520.78125 898.191406 1521.035156 906.816406 1525.535156 "/>
<path fill-rule="nonzero" fill="rgb(99.609375%, 99.609375%, 99.609375%)" fill-opacity="0" d="M 1211.359375 1653.976562 C 1190.449219 1703.449219 1172.238281 1754.058594 1152.210938 1803.910156 C 1140.179688 1803.703125 1127.769531 1802.777344 1115.820312 1804.078125 C 1103.699219 1806.226562 1093.058594 1811.441406 1082 1816.449219 C 1088.941406 1779.554688 1098.949219 1743.035156 1111.949219 1707.824219 C 1113.96875 1700.253906 1121.710938 1698.90625 1127.890625 1695.582031 C 1157.011719 1683.71875 1184.351562 1670.089844 1211.359375 1653.976562 "/>
<path fill-rule="nonzero" fill="rgb(99.609375%, 99.609375%, 99.609375%)" fill-opacity="0" d="M 607.488281 1666.21875 C 638.957031 1682.75 670.511719 1696.085938 704.164062 1707.488281 C 717.753906 1743.371094 728.230469 1779.511719 736.140625 1817.039062 C 723.898438 1811.527344 713 1805.722656 699.328125 1804.375 C 687.546875 1803.703125 676.566406 1805.722656 664.914062 1807.234375 C 644.929688 1760.578125 625.453125 1713.671875 607.488281 1666.21875 "/>
<path fill-rule="nonzero" fill="rgb(99.21875%, 99.21875%, 99.21875%)" fill-opacity="0" d="M 710.5625 1831.804688 C 723.519531 1836.179688 731.46875 1845.433594 740.261719 1855.363281 C 738.410156 1859.023438 736.601562 1862.726562 734.792969 1866.386719 C 700.421875 1870.046875 664.242188 1869.792969 630.039062 1864.828125 C 645.140625 1836.054688 679.34375 1820.445312 710.5625 1831.804688 "/>
<path fill-rule="nonzero" fill="rgb(99.609375%, 99.609375%, 99.609375%)" fill-opacity="0" d="M 1128.308594 1827.976562 C 1162.261719 1829.15625 1192.558594 1855.40625 1191.128906 1890.871094 C 1161.96875 1890.617188 1132.730469 1891.417969 1103.578125 1890.742188 C 1086.578125 1890.535156 1068.199219 1865.585938 1081.410156 1850.863281 C 1092.21875 1836.011719 1110.011719 1827.640625 1128.308594 1827.976562 "/>
<path fill-rule="nonzero" fill="rgb(99.609375%, 99.609375%, 99.609375%)" fill-opacity="0" d="M 740.261719 1855.363281 C 741.609375 1871.097656 736.054688 1887.210938 719.058594 1890.617188 C 687.378906 1891.710938 655.53125 1890.574219 623.8125 1890.914062 C 625.453125 1882.121094 627.21875 1873.371094 630.039062 1864.828125 C 664.242188 1869.792969 700.421875 1870.046875 734.792969 1866.386719 C 736.601562 1862.726562 738.410156 1859.023438 740.261719 1855.363281 "/>
</svg>
