<svg xmlns="http://www.w3.org/2000/svg" viewBox="0 0 64 80" x="0px" y="0px"><path 
 d="M40.65,29l-7.65,22c.95,.5,1.29,.61,2.29,1.08,1.06,.49,1.84,1.46,3,1.82l3.56-24.9h-1.2Z"/><path fill="#ffc600" 
 d="M43.87,29l-3.59,25.08c.67-.02,1.35-.06,1.98,.03,1.24,.18,2.44,.89,3.74,.89s2.5-.71,3.74-.89c.63-.09,1.31-.05,1.98-.03l-3.59-25.08h-4.26Z"/><path 
 d="M50.15,29l3.56,24.9c1.16-.36,1.94-1.33,3-1.82,1-.47,1.34-.58,2.29-1.08l-7.65-22h-1.2Z"/><path
 d="M38,24l2-5,.89,8h10.22l.89-8,2,5,4,6,3-2-4-6-1.69-7.61c-.2-.88-.78-1.62-1.59-2.03l-2.09-1.04c-.41-.21-.87-.32-1.34-.32h-2.29l-.59,.59c-.78,.78-2.04,.78-2.82,0l-.59-.59h-2.29c-.47,0-.93,.11-1.34,.32l-2.09,1.04c-.81,.41-1.39,1.15-1.59,2.03l-1.69,7.61-4,6,3,2,4-6Z"/><polygon points="15.57 12.75 13.29 9.71 12.75 10.25 14.39 13.54 15.57 12.75"/><polygon points="18.75 9 15.25 9 17 11.33 18.75 9"/><polygon  points="19.61 13.54 21.25 10.25 20.71 9.71 18.43 12.75 19.61 13.54"/><path d="M19,34c-.27,0-.52-.11-.71-.29l-1.29-1.3-1.29,1.3c-.19,.18-.44,.29-.71,.29h-5.09l-1.91,21h5l4-18,4,18h5l-1.91-21h-5.09Z"/><path fill="#ffc600"  d="M25.9,12.05c-.57-.67-1.4-1.05-2.28-1.05h-.5l-2.23,4.45c-.12,.25-.36,.44-.63,.52-.09,.02-.17,.03-.26,.03-.2,0-.39-.06-.55-.17l-2.45-1.63-2.45,1.63c-.16,.11-.35,.17-.55,.17-.09,0-.17-.01-.26-.03-.27-.08-.51-.27-.63-.52l-2.22-4.45h-.51c-.88,0-1.71,.38-2.28,1.05l-5.1,5.95,4,5,3-3v12h4.59l1.7-1.71c.39-.39,1.03-.39,1.42,0l1.7,1.71h4.59v-12l3,3,4-5-5.1-5.95Zm-8.9,9.95c-.55,0-1-.45-1-1s.45-1,1-1,1,.45,1,1-.45,1-1,1Zm0-4c-.55,0-1-.45-1-1s.45-1,1-1,1,.45,1,1-.45,1-1,1Z"/></svg>